<svg width="192" height="222" viewBox="0 0 192 222" fill="none" xmlns="http://www.w3.org/2000/svg">
<path d="M98 35.7C46.6 35.7 4.90005 77.4 4.90005 128.9C4.90005 180.4 46.6 222 98 222C149.4 222 191.1 180.3 191.1 128.8C191.1 77.3 149.5 35.7 98 35.7ZM98 194.5C61.8 194.5 32.4001 165.1 32.4001 128.9C32.4001 92.7 61.8 63.3 98 63.3C134.2 63.3 163.6 92.7 163.6 128.9C163.6 165.1 134.3 194.5 98 194.5ZM98 76.7V125.6C98 127 99.5 128 100.8 127.3L144.2 104.8C145.2 104.3 145.5 103.1 145 102.1C136 86.3 119.3 75.5 100 74.8C99 74.8 98 75.6 98 76.7ZM37.2 40.8L31.5 35.1C25.9 29.5 16.9001 29.5 11.3001 35.1L4.50005 41.9C-1.09995 47.5 -1.09995 56.5 4.50005 62.1L10.1 67.7C11 68.6 12.3 68.4 13.1 67.5C16.4 63 20 58.7 24 54.7C28.1 50.6 32.3001 47 36.9001 43.7C37.9001 43.1 38 41.7 37.2 40.8ZM128.5 26V14.7C128.5 6.80002 122.1 0.400024 114.2 0.400024H80.9C73 0.400024 66.6001 6.80002 66.6001 14.7V26.3C66.6001 27.6 67.8001 28.5 69.1001 28.2C78.4001 25.5 88.2001 24.1 98.1001 24.1C107.6 24.1 117 25.4 126.1 27.9C127.3 28.2 128.5 27.3 128.5 26Z" fill="white"/>
</svg>
