<svg width="80" height="91" viewBox="0 0 80 91" fill="none" xmlns="http://www.w3.org/2000/svg">
<path fill-rule="evenodd" clip-rule="evenodd" d="M35.2656 87.5832L6.6286 70.5872C3.8276 68.9242 2.0876 65.8222 2.0876 62.4902V28.4932C2.0876 25.1612 3.8276 22.0592 6.6276 20.3972L35.2656 3.39823C36.6386 2.58323 38.2026 2.15223 39.7886 2.15223C41.3736 2.15223 42.9376 2.58323 44.3116 3.39823L72.9486 20.3972C75.3086 21.7982 76.9006 24.2242 77.3486 26.9452C76.3986 24.9182 74.2566 24.3672 71.7606 25.8252L44.6686 42.5592C41.2906 44.5342 38.7996 46.7502 38.7976 50.8232V84.2062C38.7956 86.6452 39.7806 88.2252 41.2936 88.6832C40.7966 88.7692 40.2956 88.8292 39.7886 88.8292C38.2026 88.8292 36.6386 88.3982 35.2656 87.5832ZM73.9496 18.6562L45.3126 1.65823C43.6036 0.64323 41.6956 0.13623 39.7886 0.13623C37.8806 0.13623 35.9726 0.64323 34.2636 1.65823L5.6266 18.6562C2.2096 20.6852 0.1036 24.4352 0.1036 28.4932V62.4902C0.1036 66.5472 2.2096 70.2982 5.6276 72.3272L34.2646 89.3242C35.9746 90.3382 37.8806 90.8452 39.7886 90.8452C41.6966 90.8452 43.6026 90.3382 45.3116 89.3242L73.9496 72.3272C77.3676 70.2982 79.4736 66.5472 79.4736 62.4902V28.4932C79.4736 24.4352 77.3676 20.6852 73.9496 18.6562ZM66.4428 65.7771L59.3118 70.0451C59.1228 70.1551 58.9838 70.2791 58.9828 70.5061V72.3721C58.9828 72.6001 59.1358 72.6951 59.3248 72.5841L66.5658 68.1831C66.7548 68.0731 66.7838 67.8621 66.7848 67.6351V65.9891C66.7848 65.7621 66.6318 65.6671 66.4428 65.7771ZM51.682 50.3994C51.679 50.0974 51.489 49.9534 51.258 50.0704L49.858 50.9644C49.62 51.0844 49.435 51.4174 49.438 51.7204L49.464 54.1854C47.389 55.8444 46.078 58.4674 46.104 60.9884C46.136 64.0504 48.075 64.4604 50.155 64.4544C51.789 64.4664 52.461 64.9824 52.474 66.2234C52.488 67.5914 51.585 68.9684 50.235 69.6514C49.172 70.1894 48.067 70.3254 47.203 70.0344C47.134 70.0084 47.053 70.0174 46.97 70.0594C46.924 70.0824 46.878 70.1154 46.834 70.1584C46.709 70.2694 46.617 70.4434 46.575 70.6174L46.051 72.8254C45.991 73.0794 46.056 73.3024 46.207 73.3614C47.009 73.6834 48.264 73.5594 49.503 73.0444L49.528 75.4464C49.531 75.7404 49.721 75.8844 49.953 75.7674L51.399 74.9344C51.63 74.8174 51.821 74.4804 51.818 74.1864L51.771 71.7444C53.908 70.0224 55.305 67.2124 55.278 64.5954C55.25 61.9304 54.107 60.7744 51.461 60.7304C49.475 60.6964 48.9 60.3564 48.888 59.2354C48.878 58.2964 49.387 57.0314 50.843 56.2944C52.231 55.5914 53.113 55.7844 53.484 55.8684C53.553 55.8824 53.625 55.8704 53.698 55.8334C53.746 55.8094 53.794 55.7734 53.841 55.7274C53.953 55.6234 54.046 55.4564 54.088 55.2914L54.631 53.1054C54.703 52.8204 54.625 52.5804 54.449 52.5334C53.636 52.3454 52.739 52.4554 51.706 52.8664L51.682 50.3994Z" fill="white"/>
</svg>
