<svg width="2222" height="2500" viewBox="0 0 2222 2500" fill="none" xmlns="http://www.w3.org/2000/svg">
<mask id="path-1-inside-1_8_50" fill="white">
<path d="M790.728 1430.94C853.96 1541.33 972.828 1615.78 1109.19 1615.78C1246.39 1615.78 1365.93 1540.38 1428.84 1428.82L1112.58 1245.61L790.728 1430.94"/>
</mask>
<path d="M790.728 1430.94C853.96 1541.33 972.828 1615.78 1109.19 1615.78C1246.39 1615.78 1365.93 1540.38 1428.84 1428.82L1112.58 1245.61L790.728 1430.94" fill="white"/>
<path d="M1428.84 1428.82L1463.68 1448.46L1483.1 1414.02L1448.89 1394.2L1428.84 1428.82ZM1112.58 1245.61L1132.63 1211L1112.64 1199.42L1092.62 1210.95L1112.58 1245.61ZM756.019 1450.82C826.072 1573.12 957.884 1655.78 1109.19 1655.78V1575.78C987.772 1575.78 881.847 1509.54 825.437 1411.06L756.019 1450.82ZM1109.19 1655.78C1261.42 1655.78 1393.98 1572.07 1463.68 1448.46L1394 1409.17C1337.88 1508.69 1231.35 1575.78 1109.19 1575.78V1655.78ZM1448.89 1394.2L1132.63 1211L1092.53 1280.23L1408.79 1463.43L1448.89 1394.2ZM1092.62 1210.95L770.768 1396.28L810.688 1465.61L1132.54 1280.28L1092.62 1210.95Z" fill="white" mask="url(#path-1-inside-1_8_50)"/>
<mask id="path-3-inside-2_8_50" fill="white">
<path fill-rule="evenodd" clip-rule="evenodd" d="M2191.14 624.582C2209.28 656.375 2218.24 693.42 2218.26 735.343C2218.37 1077.81 2218.37 1762.54 2218.37 1762.54C2218.35 1803.55 2209.75 1839.88 2192.45 1871.19L1112.58 1245.61L2191.14 624.582ZM2074.5 1290.33H2158.88V1205.96H2074.5V1121.57H1990.1V1205.96H1905.72V1290.33H1990.1V1374.73H2074.5V1290.33ZM1766.59 1290.33H1850.97V1205.96H1766.59V1121.57H1682.21V1205.96H1597.83V1290.33H1682.21V1374.73H1766.59V1290.33Z"/>
</mask>
<path fill-rule="evenodd" clip-rule="evenodd" d="M2191.14 624.582C2209.28 656.375 2218.24 693.42 2218.26 735.343C2218.37 1077.81 2218.37 1762.54 2218.37 1762.54C2218.35 1803.55 2209.75 1839.88 2192.45 1871.19L1112.58 1245.61L2191.14 624.582ZM2074.5 1290.33H2158.88V1205.96H2074.5V1121.57H1990.1V1205.96H1905.72V1290.33H1990.1V1374.73H2074.5V1290.33ZM1766.59 1290.33H1850.97V1205.96H1766.59V1121.57H1682.21V1205.96H1597.83V1290.33H1682.21V1374.73H1766.59V1290.33Z" fill="white"/>
<path d="M2218.26 735.343L2258.26 735.33L2258.26 735.327L2218.26 735.343ZM2191.14 624.582L2225.89 604.766L2205.99 569.875L2171.18 589.917L2191.14 624.582ZM2218.37 1762.54L2258.37 1762.56L2258.37 1762.55V1762.54H2218.37ZM2192.45 1871.19L2172.39 1905.8L2207.71 1926.26L2227.45 1890.54L2192.45 1871.19ZM1112.58 1245.61L1092.62 1210.95L1032.6 1245.51L1092.53 1280.22L1112.58 1245.61ZM2158.88 1290.33V1330.33H2198.88V1290.33H2158.88ZM2074.5 1290.33V1250.33H2034.5V1290.33H2074.5ZM2158.88 1205.96H2198.88V1165.96H2158.88V1205.96ZM2074.5 1205.96H2034.5V1245.96H2074.5V1205.96ZM2074.5 1121.57H2114.5V1081.57H2074.5V1121.57ZM1990.1 1121.57V1081.57H1950.1V1121.57H1990.1ZM1990.1 1205.96V1245.96H2030.1V1205.96H1990.1ZM1905.72 1205.96V1165.96H1865.72V1205.96H1905.72ZM1905.72 1290.33H1865.72V1330.33H1905.72V1290.33ZM1990.1 1290.33H2030.1V1250.33H1990.1V1290.33ZM1990.1 1374.73H1950.1V1414.73H1990.1V1374.73ZM2074.5 1374.73V1414.73H2114.5V1374.73H2074.5ZM1850.97 1290.33V1330.33H1890.97V1290.33H1850.97ZM1766.59 1290.33V1250.33H1726.59V1290.33H1766.59ZM1850.97 1205.96H1890.97V1165.96H1850.97V1205.96ZM1766.59 1205.96H1726.59V1245.96H1766.59V1205.96ZM1766.59 1121.57H1806.59V1081.57H1766.59V1121.57ZM1682.21 1121.57V1081.57H1642.21V1121.57H1682.21ZM1682.21 1205.96V1245.96H1722.21V1205.96H1682.21ZM1597.83 1205.96V1165.96H1557.83V1205.96H1597.83ZM1597.83 1290.33H1557.83V1330.33H1597.83V1290.33ZM1682.21 1290.33H1722.21V1250.33H1682.21V1290.33ZM1682.21 1374.73H1642.21V1414.73H1682.21V1374.73ZM1766.59 1374.73V1414.73H1806.59V1374.73H1766.59ZM2258.26 735.327C2258.24 687.6 2247.99 643.51 2225.89 604.766L2156.4 644.398C2170.56 669.24 2178.24 699.24 2178.26 735.36L2258.26 735.327ZM2218.37 1762.54C2258.37 1762.54 2258.37 1762.54 2258.37 1762.53C2258.37 1762.53 2258.37 1762.52 2258.37 1762.51C2258.37 1762.49 2258.37 1762.46 2258.37 1762.42C2258.37 1762.33 2258.37 1762.21 2258.37 1762.04C2258.37 1761.71 2258.37 1761.22 2258.37 1760.57C2258.37 1759.26 2258.37 1757.32 2258.37 1754.77C2258.37 1749.67 2258.37 1742.15 2258.37 1732.45C2258.37 1713.06 2258.37 1684.97 2258.37 1650.2C2258.37 1580.65 2258.36 1484.36 2258.36 1377.36C2258.34 1163.37 2258.32 906.569 2258.26 735.33L2178.26 735.356C2178.32 906.583 2178.34 1163.38 2178.36 1377.37C2178.36 1484.36 2178.37 1580.66 2178.37 1650.2C2178.37 1684.97 2178.37 1713.06 2178.37 1732.45C2178.37 1742.15 2178.37 1749.67 2178.37 1754.77C2178.37 1757.32 2178.37 1759.26 2178.37 1760.57C2178.37 1761.22 2178.37 1761.71 2178.37 1762.04C2178.37 1762.21 2178.37 1762.33 2178.37 1762.42C2178.37 1762.46 2178.37 1762.49 2178.37 1762.51C2178.37 1762.52 2178.37 1762.53 2178.37 1762.53C2178.37 1762.54 2178.37 1762.54 2218.37 1762.54ZM2227.45 1890.54C2248.52 1852.43 2258.35 1809.26 2258.37 1762.56L2178.37 1762.52C2178.36 1797.85 2170.99 1827.32 2157.44 1851.84L2227.45 1890.54ZM1092.53 1280.22L2172.39 1905.8L2212.5 1836.58L1132.63 1211L1092.53 1280.22ZM2171.18 589.917L1092.62 1210.95L1132.54 1280.28L2211.1 659.246L2171.18 589.917ZM2158.88 1250.33H2074.5V1330.33H2158.88V1250.33ZM2118.88 1205.96V1290.33H2198.88V1205.96H2118.88ZM2074.5 1245.96H2158.88V1165.96H2074.5V1245.96ZM2034.5 1121.57V1205.96H2114.5V1121.57H2034.5ZM1990.1 1161.57H2074.5V1081.57H1990.1V1161.57ZM2030.1 1205.96V1121.57H1950.1V1205.96H2030.1ZM1905.72 1245.96H1990.1V1165.96H1905.72V1245.96ZM1945.72 1290.33V1205.96H1865.72V1290.33H1945.72ZM1990.1 1250.33H1905.72V1330.33H1990.1V1250.33ZM2030.1 1374.73V1290.33H1950.1V1374.73H2030.1ZM2074.5 1334.73H1990.1V1414.73H2074.5V1334.73ZM2034.5 1290.33V1374.73H2114.5V1290.33H2034.5ZM1850.97 1250.33H1766.59V1330.33H1850.97V1250.33ZM1810.97 1205.96V1290.33H1890.97V1205.96H1810.97ZM1766.59 1245.96H1850.97V1165.96H1766.59V1245.96ZM1726.59 1121.57V1205.96H1806.59V1121.57H1726.59ZM1682.21 1161.57H1766.59V1081.57H1682.21V1161.57ZM1722.21 1205.96V1121.57H1642.21V1205.96H1722.21ZM1597.83 1245.96H1682.21V1165.96H1597.83V1245.96ZM1637.83 1290.33V1205.96H1557.83V1290.33H1637.83ZM1682.21 1250.33H1597.83V1330.33H1682.21V1250.33ZM1722.21 1374.73V1290.33H1642.21V1374.73H1722.21ZM1766.59 1334.73H1682.21V1414.73H1766.59V1334.73ZM1726.59 1290.33V1374.73H1806.59V1290.33H1726.59Z" fill="white" mask="url(#path-3-inside-2_8_50)"/>
<mask id="path-5-inside-3_8_50" fill="white">
<path fill-rule="evenodd" clip-rule="evenodd" d="M2110.88 546.395C2146.66 567.113 2173.33 593.317 2191.14 624.582L1747.09 880.268C1619.65 660.272 1381.71 512.266 1109.19 512.266C702.317 512.266 372.497 842.095 372.497 1248.95C372.497 1382.42 408.006 1507.59 470.066 1615.56L25.9349 1871.28C8.60157 1839.96 0.0173594 1803.64 0 1762.64C0.056418 1591.4 0.056418 1420.17 0.056418 1248.95C0.056418 1077.72 0.056418 906.494 0.112836 735.265C0.130195 652.096 35.2743 588.11 107.498 546.299C177.152 505.955 311.98 428.445 456.588 345.312L456.71 345.243L456.764 345.212L456.777 345.204L456.818 345.18C676.24 219.039 918.11 79.9927 988.946 38.2166C1067.95 -8.39327 1145.12 -10.0685 1224.71 35.8818C1393.4 133.28 1562.22 230.452 1731.03 327.623L1731.08 327.653C1857.7 400.535 1984.32 473.417 2110.88 546.395ZM790.722 1430.93L1112.58 1245.61L1426.45 1064.89C1362.9 955.637 1244.66 882.117 1109.19 882.117C906.593 882.117 742.348 1046.35 742.348 1248.95C742.282 1312.79 758.961 1375.54 790.722 1430.93Z"/>
</mask>
<path fill-rule="evenodd" clip-rule="evenodd" d="M2110.88 546.395C2146.66 567.113 2173.33 593.317 2191.14 624.582L1747.09 880.268C1619.65 660.272 1381.71 512.266 1109.19 512.266C702.317 512.266 372.497 842.095 372.497 1248.95C372.497 1382.42 408.006 1507.59 470.066 1615.56L25.9349 1871.28C8.60157 1839.96 0.0173594 1803.64 0 1762.64C0.056418 1591.4 0.056418 1420.17 0.056418 1248.95C0.056418 1077.72 0.056418 906.494 0.112836 735.265C0.130195 652.096 35.2743 588.11 107.498 546.299C177.152 505.955 311.98 428.445 456.588 345.312L456.71 345.243L456.764 345.212L456.777 345.204L456.818 345.18C676.24 219.039 918.11 79.9927 988.946 38.2166C1067.95 -8.39327 1145.12 -10.0685 1224.71 35.8818C1393.4 133.28 1562.22 230.452 1731.03 327.623L1731.08 327.653C1857.7 400.535 1984.32 473.417 2110.88 546.395ZM790.722 1430.93L1112.58 1245.61L1426.45 1064.89C1362.9 955.637 1244.66 882.117 1109.19 882.117C906.593 882.117 742.348 1046.35 742.348 1248.95C742.282 1312.79 758.961 1375.54 790.722 1430.93Z" fill="white"/>
<path d="M2191.14 624.582L2211.1 659.246L2245.61 639.378L2225.9 604.782L2191.14 624.582ZM2110.88 546.395L2130.93 511.78L2130.9 511.761L2130.86 511.743L2110.88 546.395ZM1747.09 880.268L1712.48 900.318L1732.48 934.839L1767.05 914.932L1747.09 880.268ZM470.066 1615.56L490.025 1650.22L524.664 1630.28L504.745 1595.63L470.066 1615.56ZM25.9349 1871.28L-9.06199 1890.65L10.6387 1926.24L45.894 1905.94L25.9349 1871.28ZM0 1762.64L-40 1762.62L-40 1762.64L-40 1762.65L0 1762.64ZM0.112836 735.265L40.1128 735.278L40.1128 735.273L0.112836 735.265ZM107.498 546.299L127.538 580.917L127.546 580.913L107.498 546.299ZM456.588 345.312L436.656 310.633L436.653 310.634L456.588 345.312ZM456.71 345.243L436.786 310.558L436.777 310.563L456.71 345.243ZM456.764 345.212L436.842 310.525L436.84 310.527L456.764 345.212ZM456.777 345.204L476.698 379.89L476.715 379.88L476.732 379.871L456.777 345.204ZM456.818 345.18L436.882 310.502L436.872 310.508L436.863 310.514L456.818 345.18ZM988.946 38.2166L1009.27 72.6712L1009.27 72.6677L988.946 38.2166ZM1224.71 35.8818L1244.71 1.24124L1244.71 1.2403L1224.71 35.8818ZM1731.03 327.623L1751.05 292.992L1751.02 292.974L1750.99 292.956L1731.03 327.623ZM1731.08 327.653L1711.07 362.284L1711.1 362.302L1711.13 362.32L1731.08 327.653ZM790.722 1430.93L756.022 1450.83L775.955 1485.59L810.681 1465.6L790.722 1430.93ZM1112.58 1245.61L1132.54 1280.28L1132.54 1280.28L1112.58 1245.61ZM1426.45 1064.89L1446.41 1099.55L1481.22 1079.51L1461.02 1044.78L1426.45 1064.89ZM742.348 1248.95L782.348 1248.99L782.348 1248.97V1248.95H742.348ZM2225.9 604.782C2204.17 566.638 2172.07 535.604 2130.93 511.78L2090.84 581.01C2121.25 598.623 2142.5 619.997 2156.39 644.381L2225.9 604.782ZM1767.05 914.932L2211.1 659.246L2171.18 589.917L1727.13 845.604L1767.05 914.932ZM1781.7 860.217C1647.4 628.387 1396.56 472.266 1109.19 472.266V552.266C1366.86 552.266 1591.89 692.158 1712.48 900.318L1781.7 860.217ZM1109.19 472.266C680.225 472.266 332.497 820.003 332.497 1248.95H412.497C412.497 864.186 724.408 552.266 1109.19 552.266V472.266ZM332.497 1248.95C332.497 1389.61 369.936 1521.63 435.387 1635.49L504.745 1595.63C446.077 1493.56 412.497 1375.24 412.497 1248.95H332.497ZM45.894 1905.94L490.025 1650.22L450.107 1580.89L5.97579 1836.62L45.894 1905.94ZM-40 1762.65C-39.9802 1809.33 -30.1674 1852.52 -9.06199 1890.65L60.9318 1851.91C47.3705 1827.41 40.015 1797.95 40 1762.62L-40 1762.65ZM-39.9436 1248.95C-39.9436 1420.18 -39.9436 1591.4 -40 1762.62L40 1762.65C40.0564 1591.41 40.0564 1420.17 40.0564 1248.95H-39.9436ZM-39.8872 735.252C-39.9436 906.488 -39.9436 1077.72 -39.9436 1248.95H40.0564C40.0564 1077.72 40.0564 906.499 40.1128 735.278L-39.8872 735.252ZM87.4578 511.682C2.35499 560.947 -39.867 638.438 -39.8872 735.257L40.1128 735.273C40.1273 665.755 68.1935 615.272 127.538 580.917L87.4578 511.682ZM436.653 310.634C292.079 393.747 157.175 471.3 87.4496 511.686L127.546 580.913C197.128 540.61 331.881 463.143 476.524 379.99L436.653 310.634ZM436.777 310.563L436.656 310.633L476.521 379.992L476.643 379.922L436.777 310.563ZM436.84 310.527L436.786 310.558L476.633 379.927L476.687 379.897L436.84 310.527ZM436.856 310.517L436.842 310.525L476.685 379.898L476.698 379.89L436.856 310.517ZM436.863 310.514L436.822 310.537L476.732 379.871L476.773 379.847L436.863 310.514ZM968.627 3.76213C898.041 45.3903 656.471 184.265 436.882 310.502L476.753 379.858C696.009 253.813 938.178 114.595 1009.27 72.6712L968.627 3.76213ZM1244.71 1.2403C1199.73 -24.73 1153.52 -38.2653 1106.1 -37.6576C1058.74 -37.0507 1012.94 -22.38 968.621 3.76557L1009.27 72.6677C1043.96 52.2033 1076.24 42.7315 1107.12 42.3359C1137.93 41.9411 1170.1 50.5433 1204.71 70.5233L1244.71 1.2403ZM1750.99 292.956C1582.17 195.783 1413.38 98.6241 1244.71 1.24124L1204.71 70.5224C1373.43 167.936 1542.27 265.121 1711.08 362.291L1750.99 292.956ZM1751.1 293.022L1751.05 292.992L1711.02 362.255L1711.07 362.284L1751.1 293.022ZM2130.86 511.743C2004.28 438.756 1877.65 365.867 1751.04 292.986L1711.13 362.32C1837.75 435.204 1964.35 508.078 2090.9 581.047L2130.86 511.743ZM810.681 1465.6L1132.54 1280.28L1092.62 1210.95L770.763 1396.27L810.681 1465.6ZM1132.54 1280.28L1446.41 1099.55L1406.49 1030.23L1092.62 1210.95L1132.54 1280.28ZM1109.19 922.117C1229.81 922.117 1335.18 987.529 1391.87 1085L1461.02 1044.78C1390.63 923.745 1259.51 842.117 1109.19 842.117V922.117ZM782.348 1248.95C782.348 1068.45 928.684 922.117 1109.19 922.117V842.117C884.503 842.117 702.348 1024.26 702.348 1248.95H782.348ZM825.422 1411.03C797.141 1361.71 782.289 1305.84 782.348 1248.99L702.348 1248.91C702.275 1319.75 720.782 1389.37 756.022 1450.83L825.422 1411.03Z" fill="white" mask="url(#path-5-inside-3_8_50)"/>
<mask id="path-7-inside-4_8_50" fill="white">
<path fill-rule="evenodd" clip-rule="evenodd" d="M1428.84 1428.82L1112.58 1245.61L790.722 1430.93C790.724 1430.94 790.726 1430.94 790.728 1430.94C853.96 1541.33 972.828 1615.78 1109.19 1615.78C1246.38 1615.78 1365.92 1540.39 1428.84 1428.82ZM470.066 1615.56L25.9349 1871.28C43.7543 1903.49 70.8002 1930.41 107.402 1951.6C176.856 1991.83 311.116 2069 455.259 2151.85C675.099 2278.22 917.93 2417.79 988.912 2459.68C1067.95 2506.31 1145.12 2507.98 1224.74 2462.01C1395.86 2363.21 1567.11 2264.64 1738.37 2166.07C1862.59 2094.58 1986.81 2023.09 2110.98 1951.5C2147.58 1930.32 2174.63 1903.38 2192.45 1871.19L1609.19 1533.3L1749 1614.31C1622.06 1836.12 1383.07 1985.63 1109.19 1985.63C835.802 1985.63 597.189 1836.72 470.066 1615.56Z"/>
</mask>
<path fill-rule="evenodd" clip-rule="evenodd" d="M1428.84 1428.82L1112.58 1245.61L790.722 1430.93C790.724 1430.94 790.726 1430.94 790.728 1430.94C853.96 1541.33 972.828 1615.78 1109.19 1615.78C1246.38 1615.78 1365.92 1540.39 1428.84 1428.82ZM470.066 1615.56L25.9349 1871.28C43.7543 1903.49 70.8002 1930.41 107.402 1951.6C176.856 1991.83 311.116 2069 455.259 2151.85C675.099 2278.22 917.93 2417.79 988.912 2459.68C1067.95 2506.31 1145.12 2507.98 1224.74 2462.01C1395.86 2363.21 1567.11 2264.64 1738.37 2166.07C1862.59 2094.58 1986.81 2023.09 2110.98 1951.5C2147.58 1930.32 2174.63 1903.38 2192.45 1871.19L1609.19 1533.3L1749 1614.31C1622.06 1836.12 1383.07 1985.63 1109.19 1985.63C835.802 1985.63 597.189 1836.72 470.066 1615.56Z" fill="white"/>
<path d="M1428.84 1428.82L1463.68 1448.47L1483.1 1414.03L1448.89 1394.21L1428.84 1428.82ZM1112.58 1245.61L1132.63 1211L1112.64 1199.42L1092.62 1210.95L1112.58 1245.61ZM790.722 1430.93L770.763 1396.27L735.941 1416.32L756.148 1451.05L790.722 1430.93ZM790.728 1430.94L825.437 1411.06L825.37 1410.94L825.302 1410.83L790.728 1430.94ZM470.066 1615.56L504.745 1595.63L484.797 1560.92L450.107 1580.89L470.066 1615.56ZM25.9349 1871.28L5.97582 1836.62L-28.1008 1856.24L-9.066 1890.64L25.9349 1871.28ZM107.402 1951.6L127.45 1916.99L127.441 1916.98L107.402 1951.6ZM455.259 2151.85L475.192 2117.17L475.192 2117.17L455.259 2151.85ZM988.912 2459.68L1009.24 2425.23L1009.24 2425.23L988.912 2459.68ZM1224.74 2462.01L1244.74 2496.65L1244.74 2496.65L1224.74 2462.01ZM1738.37 2166.07L1758.33 2200.74L1758.33 2200.74L1738.37 2166.07ZM2110.98 1951.5L2130.96 1986.15L2130.98 1986.14L2131.01 1986.12L2110.98 1951.5ZM2192.45 1871.19L2227.44 1890.57L2246.44 1856.25L2212.5 1836.58L2192.45 1871.19ZM1609.19 1533.3L1629.24 1498.69L1589.13 1567.91L1609.19 1533.3ZM1749 1614.31L1783.72 1634.18L1803.48 1599.64L1769.05 1579.7L1749 1614.31ZM1448.89 1394.21L1132.63 1211L1092.53 1280.22L1408.79 1463.44L1448.89 1394.21ZM1092.62 1210.95L770.763 1396.27L810.681 1465.6L1132.54 1280.28L1092.62 1210.95ZM825.302 1410.83C825.325 1410.86 825.344 1410.9 825.361 1410.93C825.378 1410.96 825.392 1410.98 825.403 1411C825.414 1411.02 825.423 1411.03 825.428 1411.04C825.43 1411.05 825.433 1411.05 825.434 1411.05C825.435 1411.06 825.436 1411.06 825.436 1411.06C825.436 1411.06 825.435 1411.06 825.435 1411.06C825.434 1411.06 825.434 1411.05 825.433 1411.05C825.432 1411.05 825.429 1411.05 825.426 1411.04C825.421 1411.03 825.411 1411.02 825.4 1411C825.389 1410.98 825.374 1410.95 825.357 1410.92C825.34 1410.89 825.319 1410.86 825.296 1410.82L756.148 1451.05C756.126 1451.01 756.106 1450.97 756.089 1450.95C756.073 1450.92 756.059 1450.89 756.048 1450.87C756.037 1450.85 756.028 1450.84 756.023 1450.83C756.02 1450.83 756.018 1450.82 756.017 1450.82C756.016 1450.82 756.015 1450.82 756.015 1450.82C756.015 1450.82 756.015 1450.82 756.016 1450.82C756.016 1450.82 756.017 1450.82 756.017 1450.82C756.019 1450.82 756.021 1450.83 756.024 1450.83C756.03 1450.84 756.039 1450.86 756.05 1450.88C756.062 1450.9 756.077 1450.92 756.094 1450.95C756.111 1450.98 756.131 1451.02 756.154 1451.06L825.302 1410.83ZM1109.19 1575.78C987.772 1575.78 881.847 1509.54 825.437 1411.06L756.019 1450.82C826.072 1573.12 957.884 1655.78 1109.19 1655.78V1575.78ZM1393.99 1409.18C1337.87 1508.7 1231.35 1575.78 1109.19 1575.78V1655.78C1261.42 1655.78 1393.98 1572.08 1463.68 1448.47L1393.99 1409.18ZM450.107 1580.89L5.97582 1836.62L45.8941 1905.94L490.025 1650.22L450.107 1580.89ZM-9.066 1890.64C12.6707 1929.93 45.25 1961.84 87.3636 1986.22L127.441 1916.98C96.3505 1898.99 74.8379 1877.05 60.9359 1851.92L-9.066 1890.64ZM87.3549 1986.22C156.882 2026.48 291.217 2103.7 435.325 2186.53L475.192 2117.17C331.014 2034.3 196.831 1957.17 127.45 1916.99L87.3549 1986.22ZM435.325 2186.53C655.336 2312.99 897.86 2452.4 968.585 2494.13L1009.24 2425.23C937.999 2383.19 694.862 2243.44 475.192 2117.17L435.325 2186.53ZM968.584 2494.13C1012.92 2520.28 1058.73 2534.96 1106.1 2535.57C1153.53 2536.17 1199.74 2522.63 1244.74 2496.65L1204.74 2427.37C1170.11 2447.36 1137.93 2455.97 1107.12 2455.57C1076.24 2455.18 1043.94 2445.7 1009.24 2425.23L968.584 2494.13ZM1244.74 2496.65C1415.83 2397.86 1587.06 2299.31 1758.33 2200.74L1718.42 2131.4C1547.16 2229.97 1375.89 2328.55 1204.74 2427.37L1244.74 2496.65ZM1758.33 2200.74C1882.54 2129.25 2006.77 2057.75 2130.96 1986.15L2091 1916.84C1966.84 1988.42 1842.64 2059.91 1718.42 2131.4L1758.33 2200.74ZM2131.01 1986.12C2173.14 1961.75 2205.71 1929.82 2227.44 1890.57L2157.45 1851.82C2143.54 1876.94 2122.02 1898.89 2090.95 1916.88L2131.01 1986.12ZM2212.5 1836.58L1629.24 1498.69L1589.13 1567.91L2172.39 1905.8L2212.5 1836.58ZM1769.05 1579.7L1629.24 1498.69L1589.13 1567.91L1728.95 1648.92L1769.05 1579.7ZM1109.19 2025.63C1398 2025.63 1649.95 1867.92 1783.72 1634.18L1714.28 1594.44C1594.17 1804.31 1368.15 1945.63 1109.19 1945.63V2025.63ZM435.387 1635.49C569.353 1868.56 820.907 2025.63 1109.19 2025.63V1945.63C850.696 1945.63 625.025 1804.88 504.745 1595.63L435.387 1635.49Z" fill="white" mask="url(#path-7-inside-4_8_50)"/>
</svg>
