<svg width="117" height="117" viewBox="0 0 117 117" fill="none" xmlns="http://www.w3.org/2000/svg">
<path d="M114.624 49.0616C111.991 47.238 105.948 46.5656 101.225 47.4723C100.672 42.9285 98.1524 38.945 93.758 35.4199L91.2279 33.5963L89.4661 36.2146C87.1774 40.0523 86.143 44.5021 86.5058 48.9496C86.695 51.4143 87.4861 53.7959 88.8105 55.8876C86.0672 57.3023 83.0085 58.0033 79.9193 57.9252H0.523664L0.308564 58.8319C-0.459682 63.3758 -0.459682 77.588 8.50319 88.4994C15.315 96.8026 25.4148 101 38.7004 101C67.4737 101 88.7798 87.2463 98.767 62.3468C102.721 62.4589 111.172 62.3468 115.464 53.8194C115.576 53.5953 115.791 53.1368 116.56 51.4354L117 50.5287L114.583 49.0515L114.624 49.0616ZM63.991 17H51.9142V28.3698H63.991V17ZM63.991 30.6417H51.9142V42.0115H63.991V30.6417V30.6417ZM49.7119 30.6417H37.6351V42.0115H49.7119V30.6417V30.6417ZM35.4328 30.6417H23.3662V42.0115H35.443V30.6417H35.4328ZM21.1536 44.2835H9.08706V55.6533H21.1639V44.2835H21.1536ZM35.4328 44.2835H23.3662V55.6533H35.443V44.2835H35.4328ZM49.7119 44.2835H37.6351V55.6533H49.7119V44.2835V44.2835ZM63.991 44.2835H51.9142V55.6533H63.991V44.2835V44.2835ZM78.2702 44.2835H66.1934V55.6533H78.2702V44.2835V44.2835Z" fill="white"/>
</svg>
