<svg width="28" height="28" viewBox="0 0 28 28" fill="none" xmlns="http://www.w3.org/2000/svg">
<path fill-rule="evenodd" clip-rule="evenodd" d="M28 14C28 21.7319 21.732 28 14 28C6.26801 28 0 21.7319 0 14C0 6.26807 6.26801 0 14 0C21.732 0 28 6.26807 28 14ZM3 14.2C3 16.9 4.10001 19.7 6.20001 21.8C8.29999 23.9 11.1 24.9 13.9 25L3 14.2ZM3.29999 11.6L16.4 24.7C21.3 23.6 25 19.2 25 14H18V16H22.8C22.1 19 19.9 21.5 17 22.5L5.5 11C6.79999 7.5 10.1 5 14 5C17 5 19.7 6.5 21.4 8.80005L22.9 7.5C20.9 4.80005 17.7 3 14 3C8.79999 3 4.39999 6.69995 3.29999 11.6Z" fill="white"/>
</svg>
