<svg width="57" height="61" viewBox="0 0 57 61" fill="none" xmlns="http://www.w3.org/2000/svg">
<path fill-rule="evenodd" clip-rule="evenodd" d="M28.2271 0L0 10.0264L4.30533 47.2026L28.2271 60.4L52.1489 47.2026L56.4542 10.0264L28.2271 0ZM36.501 28.6458L33.7932 28.0443L35.8993 31.0519V40.3756L43.1201 34.3604V24.1344L39.8106 25.3374L36.501 28.6458ZM22.3601 28.0443L19.6523 28.6458L16.3428 25.3374L13.0332 24.1344V34.3604L20.2541 40.3756V31.0519L22.3601 28.0443ZM21.1271 31.6165L23.5271 28L25.0271 28.9041H31.0271L32.5271 28L34.9271 31.6165V45.1781L33.1271 47.8904L31.0271 50H25.0271L22.9271 47.8904L21.1271 45.1781V31.6165ZM39.8106 42.1802L35.8993 46.0901V41.5786L39.8106 38.2701V42.1802ZM20.2541 46.0901L16.3428 42.1802V38.2701L20.2541 41.5786V46.0901ZM12.7323 22.9313L25.6697 27.7435H25.9706H27.4749V10.6H24.1654L21.7683 16.2909L10.9271 15.4122L12.7323 22.9313ZM28.6784 27.7435V10.6H31.988L34.3853 16.2915L45.5271 15.4122L43.7219 22.9313L30.7845 27.7435H30.4836H28.6784ZM34.9967 15.4122L41.3149 14.8107L37.1027 10.6H32.8906L34.9967 15.4122ZM14.8384 14.8107L21.1567 15.4122L23.2628 10.6H19.0506L14.8384 14.8107Z" fill="white"/>
</svg>
