<svg width="349" height="415" viewBox="0 0 349 415" fill="none" xmlns="http://www.w3.org/2000/svg">
<path d="M119.675 298.577C123.661 313.318 123.223 327.065 119.107 339.514C118.65 340.897 118.146 342.265 117.599 343.617C117.053 344.966 116.461 346.301 115.826 347.618C112.651 354.205 108.391 360.37 103.174 366.061C87.2594 383.424 65.0234 389.989 55.4888 384.457C45.1928 378.489 50.3501 354.009 68.8021 334.505C88.6528 313.52 117.214 300.028 117.214 300.028L117.17 299.942C117.993 299.5 118.829 299.044 119.675 298.577ZM345.929 50.6598C333.525 2.01176 252.861 -13.9803 176.517 13.1424C131.083 29.2824 81.8981 54.6158 46.5328 87.6958C4.48372 127.026 -2.22201 161.258 0.542119 175.562C10.2911 226.034 79.4474 259.025 107.877 283.502V283.65C99.4941 287.777 38.1381 318.828 23.7796 350.572C8.62905 384.061 26.1911 408.093 37.8181 411.328C73.8434 421.351 110.811 403.323 130.678 373.689C149.85 345.092 148.254 308.164 139.922 289.794C151.415 286.762 164.814 285.404 181.842 287.393C229.891 293.005 239.319 323.008 237.517 335.561C235.715 348.118 225.637 355.023 222.267 357.106C218.897 359.192 217.869 359.913 218.153 361.463C218.561 363.716 220.121 363.632 222.994 363.145C226.949 362.478 248.225 352.932 249.134 329.754C250.293 300.328 222.093 267.41 172.161 268.27C151.597 268.625 138.666 270.581 129.326 274.057C128.635 273.27 127.933 272.488 127.206 271.713C96.3368 238.778 39.2714 215.481 41.6914 171.205C42.5714 155.109 48.1661 112.724 151.343 61.3104C235.863 19.1957 303.525 30.7851 315.218 56.4704C331.921 93.1651 279.057 161.368 191.282 171.205C157.841 174.954 140.233 161.993 135.853 157.166C131.241 152.085 130.554 151.856 128.833 152.809C126.027 154.362 127.805 158.849 128.833 161.524C131.453 168.344 142.207 180.438 160.542 186.454C176.67 191.748 215.934 194.656 263.418 176.289C316.598 155.717 358.126 98.4931 345.929 50.6598" fill="white"/>
</svg>
