<svg width="1000" height="1000" viewBox="0 0 1000 1000" fill="none" xmlns="http://www.w3.org/2000/svg">
<path d="M489.337 200.197C313.49 205.78 261.226 331.264 249.249 399.245C264.856 374.047 314.035 318.757 386.442 318.757C470.827 318.757 535.068 412.843 574.266 442.211C621.888 477.89 717.582 525.001 843.208 486.806C943.381 456.351 989.838 350.117 1000 299.721C951.547 365.527 878.051 405.053 787.133 358.457C724.525 326.37 677.705 194.215 489.337 200.197Z" fill="white"/>
<path d="M240.088 499.197C64.2412 504.78 11.9772 630.264 0 698.245C15.6066 673.047 64.7856 617.757 137.193 617.757C221.578 617.757 285.819 711.843 325.017 741.211C372.639 776.89 468.332 824.001 593.959 785.806C694.131 755.351 740.589 649.117 750.751 598.721C702.298 664.527 628.801 704.053 537.884 657.457C475.276 625.37 428.456 493.215 240.088 499.197Z" fill="white"/>
</svg>
