<svg id="discord" viewBox="0 0 71 71" fill="currentColor" xmlns="http://www.w3.org/2000/svg">
    <g clip-path="url(#clip0_102_12)">
        <path d="M60.1045 12.4861C55.5792 10.4097 50.7265 8.87986 45.6527 8.00368C45.5603 7.98677 45.468 8.02902 45.4204 8.11354C44.7963 9.22356 44.105 10.6717 43.6209 11.8099C38.1637 10.9929 32.7345 10.9929 27.3892 11.8099C26.905 10.6464 26.1886 9.22356 25.5617 8.11354C25.5141 8.03184 25.4218 7.98959 25.3294 8.00368C20.2584 8.87706 15.4057 10.4069 10.8776 12.4861C10.8384 12.503 10.8048 12.5312 10.7825 12.5678C1.57795 26.3192 -0.943561 39.7326 0.293408 52.9797C0.299005 53.0445 0.335386 53.1065 0.385761 53.1459C6.45866 57.6057 12.3413 60.3132 18.1147 62.1078C18.2071 62.136 18.305 62.1022 18.3638 62.0261C19.7295 60.1611 20.9469 58.1946 21.9907 56.1266C22.0523 56.0055 21.9935 55.8618 21.8676 55.8139C19.9366 55.0814 18.0979 54.1883 16.3292 53.1741C16.1893 53.0924 16.1781 52.8923 16.3068 52.7965C16.679 52.5176 17.0513 52.2274 17.4067 51.9344C17.471 51.8809 17.5606 51.8696 17.6362 51.9034C29.2558 57.2085 41.8354 57.2085 53.3179 51.9034C53.3935 51.8668 53.4831 51.8781 53.5502 51.9316C53.9057 52.2246 54.2779 52.5176 54.6529 52.7965C54.7816 52.8923 54.7732 53.0924 54.6333 53.1741C52.8646 54.208 51.0259 55.0814 49.0921 55.8111C48.9662 55.859 48.9102 56.0055 48.9718 56.1266C50.038 58.1917 51.2554 60.1582 52.5959 62.0233C52.6519 62.1022 52.7526 62.136 52.845 62.1078C58.6464 60.3132 64.529 57.6057 70.6019 53.1459C70.6551 53.1065 70.6887 53.0473 70.6943 52.9825C72.1747 37.6674 68.2147 24.364 60.1968 12.5706C60.1772 12.5312 60.1437 12.503 60.1045 12.4861ZM23.7259 44.9136C20.2276 44.9136 17.3451 41.7019 17.3451 37.7576C17.3451 33.8133 20.1717 30.6016 23.7259 30.6016C27.308 30.6016 30.1626 33.8415 30.1066 37.7576C30.1066 41.7019 27.28 44.9136 23.7259 44.9136ZM47.3178 44.9136C43.8196 44.9136 40.9371 41.7019 40.9371 37.7576C40.9371 33.8133 43.7636 30.6016 47.3178 30.6016C50.9 30.6016 53.7545 33.8415 53.6986 37.7576C53.6986 41.7019 50.9 44.9136 47.3178 44.9136Z" fill="white" />
    </g>
    <defs>
        <clipPath id="clip0_102_12">
            <rect width="71" height="71" fill="white" />
        </clipPath>
    </defs>
</svg>