<svg id="email" viewBox="0 0 512 512" fill="currentColor" xmlns="http://www.w3.org/2000/svg">
    <g clip-path="url(#clip0_102_7)">
        <path d="M256 64C150 64 64 150 64 256C64 362 150 448 256 448C273.7 448 288 462.3 288 480C288 497.7 273.7 512 256 512C114.6 512 0 397.4 0 256C0 114.6 114.6 0 256 0C397.4 0 512 114.6 512 256V288C512 341 469 384 416 384C386.7 384 360.4 370.8 342.8 350.1C320 371.1 289.5 384 256 384C185.3 384 128 326.7 128 256C128 185.3 185.3 128 256 128C283.9 128 309.7 136.9 330.7 152.1C336.4 147.1 343.8 144 352 144C369.7 144 384 158.3 384 176V256V288C384 305.7 398.3 320 416 320C433.7 320 448 305.7 448 288V256C448 150 362 64 256 64ZM320 256C320 220.7 291.3 192 256 192C220.7 192 192 220.7 192 256C192 291.3 220.7 320 256 320C291.3 320 320 291.3 320 256Z" fill="white" />
    </g>
    <defs>
        <clipPath id="clip0_102_7">
            <rect width="512" height="512" fill="white" />
        </clipPath>
    </defs>
</svg>