<svg viewBox="0 0 76 77" id="linkedin" fill="currentColor" xmlns="http://www.w3.org/2000/svg">
    <path fill-rule="evenodd" clip-rule="evenodd" d="M0 5.46193C0 2.4462 2.50671 0 5.59906 0H70.1682C73.2605 0 75.7673 2.4462 75.7673 5.46193V70.7861C75.7673 73.8028 73.2605 76.248 70.1682 76.248H5.59906C2.50671 76.248 0 73.8028 0 70.7861V5.46193ZM22.9674 63.8275V29.3972H11.5234V63.8275H22.9674ZM17.2454 24.6964C21.2361 24.6964 23.72 22.0525 23.72 18.7485C23.6456 15.37 21.2361 12.7995 17.3211 12.7995C13.4064 12.7995 10.8469 15.37 10.8469 18.7485C10.8469 22.0525 13.3303 24.6964 17.1708 24.6964H17.2454ZM40.7436 63.8275H29.3001C29.3001 63.8275 29.4502 32.6279 29.3001 29.3972H40.7439V34.2719C42.2648 31.9258 44.9867 28.5893 51.0573 28.5893C58.5865 28.5893 64.2324 33.5103 64.2324 44.0857V63.8275H52.7894V45.4081C52.7894 40.7796 51.1329 37.6222 46.9919 37.6222C43.8305 37.6222 41.9475 39.7516 41.1202 41.8076C40.818 42.5432 40.7436 43.5712 40.7436 44.6002V63.8275ZM40.7439 34.2719V34.3905H40.6675C40.6926 34.3513 40.7181 34.3117 40.7439 34.2719Z" />
</svg>